<svg xmlns="http://www.w3.org/2000/svg" viewBox="0 0 64 64" role="img" aria-labelledby="title desc">
  <title id="title">MegaMind favicon</title>
  <desc id="desc">A simplified labyrinth M favicon with a highlighted route.</desc>
  <rect width="64" height="64" fill="#111816"/>
  <g fill="none" stroke-linecap="square" stroke-linejoin="miter">
    <path d="M8 8h48v48H8z" stroke="#e1e8e1" stroke-width="5"/>
    <path d="M17 17h12M35 17h12M17 47h11M36 47h11M17 28v19M47 28v19" stroke="#e1e8e1" stroke-width="5"/>
    <path d="M18 45V20h8l14 19 14-19h8v25h-8V33L40 52 26 33v12z" stroke="#e1e8e1" stroke-width="7"/>
    <path d="M7 32h12V18h9v12l12 18 12-18v18h5" stroke="#ffd66f" stroke-width="6"/>
    <path d="M7 32h12V18h9v12l12 18 12-18v18h5" stroke="#fff3a6" stroke-width="2"/>
  </g>
  <circle cx="7" cy="32" r="4" fill="#ffd66f"/>
  <circle cx="57" cy="48" r="4" fill="#ffd66f"/>
</svg>
